<svg width="16" height="17" viewBox="0 0 16 17" fill="none" xmlns="http://www.w3.org/2000/svg">
<mask id="mask0_38_552" style="mask-type:alpha" maskUnits="userSpaceOnUse" x="0" y="0" width="16" height="17">
<rect y="0.5" width="16" height="16" fill="#D9D9D9"/>
</mask>
<g mask="url(#mask0_38_552)">
<path d="M3.55556 16.5V14.7222H7.11111V11.9667C6.38519 11.8037 5.73704 11.4963 5.16667 11.0444C4.5963 10.5926 4.17778 10.0259 3.91111 9.34444C2.8 9.21111 1.87037 8.72593 1.12222 7.88889C0.374074 7.05185 0 6.07037 0 4.94444V4.05556C0 3.56667 0.174074 3.14815 0.522222 2.8C0.87037 2.45185 1.28889 2.27778 1.77778 2.27778H3.55556V0.5H12.4444V2.27778H14.2222C14.7111 2.27778 15.1296 2.45185 15.4778 2.8C15.8259 3.14815 16 3.56667 16 4.05556V4.94444C16 6.07037 15.6259 7.05185 14.8778 7.88889C14.1296 8.72593 13.2 9.21111 12.0889 9.34444C11.8222 10.0259 11.4037 10.5926 10.8333 11.0444C10.263 11.4963 9.61481 11.8037 8.88889 11.9667V14.7222H12.4444V16.5H3.55556ZM3.55556 7.43333V4.05556H1.77778V4.94444C1.77778 5.50741 1.94074 6.01481 2.26667 6.46667C2.59259 6.91852 3.02222 7.24074 3.55556 7.43333ZM12.4444 7.43333C12.9778 7.24074 13.4074 6.91852 13.7333 6.46667C14.0593 6.01481 14.2222 5.50741 14.2222 4.94444V4.05556H12.4444V7.43333Z" fill="#0A2540"/>
</g>
</svg>
