<svg width="25" height="24" viewBox="0 0 25 24" fill="none" xmlns="http://www.w3.org/2000/svg">
<path d="M10.82 17.52L19.28 9.06L17.6 7.38L10.82 14.16L7.4 10.74L5.72 12.42L10.82 17.52ZM12.5 24C10.84 24 9.28 23.685 7.82 23.055C6.36 22.425 5.09 21.57 4.01 20.49C2.93 19.41 2.075 18.14 1.445 16.68C0.815 15.22 0.5 13.66 0.5 12C0.5 10.34 0.815 8.78 1.445 7.32C2.075 5.86 2.93 4.59 4.01 3.51C5.09 2.43 6.36 1.575 7.82 0.945C9.28 0.315 10.84 0 12.5 0C14.16 0 15.72 0.315 17.18 0.945C18.64 1.575 19.91 2.43 20.99 3.51C22.07 4.59 22.925 5.86 23.555 7.32C24.185 8.78 24.5 10.34 24.5 12C24.5 13.66 24.185 15.22 23.555 16.68C22.925 18.14 22.07 19.41 20.99 20.49C19.91 21.57 18.64 22.425 17.18 23.055C15.72 23.685 14.16 24 12.5 24Z" fill="#0A2540"/>
</svg>
