<svg width="24" height="24" viewBox="0 0 24 24" fill="none" xmlns="http://www.w3.org/2000/svg">
<path d="M10.9091 4.36364V0H13.0909V4.36364H10.9091ZM18.1636 7.36364L16.6636 5.86364L19.7182 2.72727L21.2455 4.28182L18.1636 7.36364ZM19.6364 13.0909V10.9091H24V13.0909H19.6364ZM10.9091 24V19.6364H13.0909V24H10.9091ZM5.83636 7.30909L2.72727 4.28182L4.28182 2.75455L7.36364 5.83636L5.83636 7.30909ZM19.6909 21.2727L16.6636 18.1364L18.1364 16.6636L21.2455 19.6636L19.6909 21.2727ZM0 13.0909V10.9091H4.36364V13.0909H0ZM4.28182 21.2727L2.75455 19.7182L5.80909 16.6636L6.6 17.4L7.39091 18.1636L4.28182 21.2727ZM12 18.5455C10.1818 18.5455 8.63636 17.9091 7.36364 16.6364C6.09091 15.3636 5.45455 13.8182 5.45455 12C5.45455 10.1818 6.09091 8.63636 7.36364 7.36364C8.63636 6.09091 10.1818 5.45455 12 5.45455C13.8182 5.45455 15.3636 6.09091 16.6364 7.36364C17.9091 8.63636 18.5455 10.1818 18.5455 12C18.5455 13.8182 17.9091 15.3636 16.6364 16.6364C15.3636 17.9091 13.8182 18.5455 12 18.5455Z" fill="#F5F5F5"/>
</svg>
