<svg width="17" height="17" viewBox="0 0 17 17" fill="none" xmlns="http://www.w3.org/2000/svg">
<mask id="mask0_38_563" style="mask-type:alpha" maskUnits="userSpaceOnUse" x="0" y="0" width="17" height="17">
<rect x="0.5" y="0.5" width="16" height="16" fill="#D9D9D9"/>
</mask>
<g mask="url(#mask0_38_563)">
<path d="M8.43506 16.5762C7.32395 16.5762 6.28321 16.3651 5.31284 15.9428C4.34247 15.5206 3.49802 14.9502 2.7795 14.2317C2.06098 13.5132 1.49061 12.6688 1.06839 11.6984C0.64617 10.728 0.435059 9.68728 0.435059 8.57617C0.435059 7.46506 0.64617 6.42432 1.06839 5.45395C1.49061 4.48358 2.06098 3.63913 2.7795 2.92062C3.49802 2.2021 4.34247 1.63173 5.31284 1.20951C6.28321 0.787283 7.32395 0.576172 8.43506 0.576172C9.64987 0.576172 10.8017 0.835431 11.8906 1.35395C12.9795 1.87247 13.9017 2.6058 14.6573 3.55395V1.46506H16.4351V6.79839H11.1017V5.02062H13.5462C12.9388 4.19099 12.1906 3.53913 11.3017 3.06506C10.4128 2.59099 9.45728 2.35395 8.43506 2.35395C6.70173 2.35395 5.23135 2.95765 4.02395 4.16506C2.81654 5.37247 2.21284 6.84284 2.21284 8.57617C2.21284 10.3095 2.81654 11.7799 4.02395 12.9873C5.23135 14.1947 6.70173 14.7984 8.43506 14.7984C9.99061 14.7984 11.3499 14.2947 12.5128 13.2873C13.6758 12.2799 14.361 11.0058 14.5684 9.46506H16.3906C16.1684 11.4947 15.298 13.1873 13.7795 14.5428C12.261 15.8984 10.4795 16.5762 8.43506 16.5762ZM10.9239 12.3095L7.54617 8.93173V4.13173H9.32395V8.22062L12.1684 11.0651L10.9239 12.3095Z" fill="#0A2540"/>
</g>
</svg>
